<?xml version="1.0" encoding="UTF-8"?>
<svg xmlns="http://www.w3.org/2000/svg" xmlns:xlink="http://www.w3.org/1999/xlink" width="2100" height="2100" viewBox="0 0 2100 2100">
<!--<rect x="-210" y="-210" width="2520" height="2520" fill="rgb(99.609375%, 99.609375%, 99.609375%)" fill-opacity="1"/>-->
<path fill-rule="evenodd" fill="black" fill-opacity="1" d="M 638.558594 638.558594 C 726.449219 550.671875 842.34375 490.761719 971.707031 473.359375 L 971.707031 383.898438 C 817.808594 401.800781 679.808594 471.800781 575.804688 575.808594 C 471.804688 679.808594 401.800781 817.808594 383.90625 971.710938 L 473.363281 971.710938 C 490.761719 842.339844 550.664062 726.449219 638.558594 638.558594 "/>
<path fill-rule="evenodd" fill="black" fill-opacity="1" d="M 971.707031 626.539062 C 884.199219 642.621094 805.945312 685.160156 745.550781 745.550781 C 685.160156 805.949219 642.621094 884.199219 626.542969 971.710938 L 717.207031 971.710938 C 731.960938 908.75 764.109375 852.5 808.304688 808.308594 C 852.5 764.109375 908.753906 731.960938 971.707031 717.210938 L 971.707031 626.539062 "/>
<path fill-rule="evenodd" fill="black" fill-opacity="1" d="M 1128.289062 626.539062 L 1128.289062 717.210938 C 1191.25 731.960938 1247.5 764.109375 1291.691406 808.308594 C 1335.890625 852.5 1368.039062 908.75 1382.789062 971.710938 L 1473.460938 971.710938 C 1457.378906 884.199219 1414.839844 805.949219 1354.449219 745.550781 C 1294.050781 685.160156 1215.800781 642.621094 1128.289062 626.539062 "/>
<path fill-rule="evenodd" fill="black" fill-opacity="1" d="M 1128.289062 473.359375 C 1257.660156 490.761719 1373.550781 550.671875 1461.441406 638.558594 C 1549.328125 726.449219 1609.238281 842.339844 1626.640625 971.710938 L 1716.089844 971.710938 C 1698.199219 817.808594 1628.191406 679.808594 1524.191406 575.808594 C 1420.191406 471.808594 1282.191406 401.800781 1128.289062 383.910156 L 1128.289062 473.359375 "/>
<path fill-rule="evenodd" fill="black" fill-opacity="1" d="M 1626.640625 1128.292969 C 1609.238281 1257.65625 1549.328125 1373.550781 1461.441406 1461.441406 C 1373.550781 1549.335938 1257.660156 1609.238281 1128.289062 1626.636719 L 1128.289062 1716.09375 C 1282.191406 1698.199219 1420.191406 1628.195312 1524.191406 1524.195312 C 1628.199219 1420.191406 1698.199219 1282.191406 1716.101562 1128.292969 L 1626.640625 1128.292969 "/>
<path fill-rule="evenodd" fill="black" fill-opacity="1" d="M 808.304688 1291.695312 C 764.109375 1247.496094 731.960938 1191.246094 717.207031 1128.292969 L 626.542969 1128.292969 C 642.621094 1215.800781 685.160156 1294.054688 745.550781 1354.449219 C 805.945312 1414.839844 884.199219 1457.378906 971.707031 1473.457031 L 971.707031 1382.792969 C 908.753906 1368.039062 852.503906 1335.890625 808.304688 1291.695312 "/>
<path fill-rule="evenodd" fill="black" fill-opacity="1" d="M 638.558594 1461.441406 C 550.664062 1373.550781 490.761719 1257.660156 473.363281 1128.292969 L 383.902344 1128.292969 C 401.800781 1282.191406 471.804688 1420.191406 575.804688 1524.195312 C 679.808594 1628.195312 817.808594 1698.199219 971.707031 1716.097656 L 971.707031 1626.636719 C 842.339844 1609.238281 726.449219 1549.335938 638.558594 1461.441406 "/>
<path fill-rule="evenodd" fill="black" fill-opacity="1" d="M 1128.289062 1382.792969 L 1128.289062 1473.457031 C 1215.800781 1457.378906 1294.050781 1414.839844 1354.449219 1354.449219 C 1414.839844 1294.054688 1457.378906 1215.800781 1473.460938 1128.292969 L 1382.789062 1128.292969 C 1368.039062 1191.246094 1335.890625 1247.5 1291.691406 1291.695312 C 1247.5 1335.890625 1191.25 1368.039062 1128.289062 1382.792969 "/>
<path fill-rule="evenodd" fill="black" fill-opacity="1" d="M 1094.378906 855.589844 L 1094.378906 222.851562 C 1094.378906 198.339844 1074.511719 178.46875 1050 178.46875 C 1025.488281 178.46875 1005.621094 198.339844 1005.621094 222.851562 L 1005.621094 856.609375 C 1019.890625 853.351562 1034.738281 851.621094 1050 851.621094 C 1065.261719 851.621094 1080.109375 853.351562 1094.378906 856.609375 Z M 856.609375 1005.621094 L 222.847656 1005.621094 C 198.339844 1005.621094 178.46875 1025.488281 178.46875 1050 C 178.46875 1074.511719 198.339844 1094.378906 222.847656 1094.378906 L 856.609375 1094.378906 C 853.347656 1080.109375 851.621094 1065.261719 851.621094 1050 C 851.621094 1034.738281 853.347656 1019.890625 856.609375 1005.621094 Z M 1005.621094 1243.390625 L 1005.621094 1877.152344 C 1005.621094 1901.660156 1025.488281 1921.53125 1050 1921.53125 C 1074.511719 1921.53125 1094.378906 1901.660156 1094.378906 1877.152344 L 1094.378906 1243.390625 C 1080.109375 1246.652344 1065.261719 1248.378906 1050 1248.378906 C 1034.738281 1248.378906 1019.890625 1246.652344 1005.621094 1243.390625 Z M 1243.390625 1094.378906 L 1877.148438 1094.378906 C 1901.660156 1094.378906 1921.53125 1074.511719 1921.53125 1050 C 1921.53125 1025.488281 1901.660156 1005.621094 1877.148438 1005.621094 L 1243.390625 1005.621094 C 1246.648438 1019.890625 1248.378906 1034.738281 1248.378906 1050 C 1248.378906 1065.261719 1246.648438 1080.109375 1243.390625 1094.378906 "/>
<!--<path fill-rule="evenodd" fill="rgb(92.96875%, 19.604492%, 21.580505%)" fill-opacity="1" d="M 1050 907.730469 C 1128.578125 907.730469 1192.269531 971.421875 1192.269531 1050 C 1192.269531 1128.574219 1128.578125 1192.273438 1050 1192.273438 C 971.425781 1192.273438 907.726562 1128.574219 907.726562 1050 C 907.726562 971.421875 971.425781 907.730469 1050 907.730469 "/>-->
</svg>
